# xmcd
#
# Track frame offsets:
#	150
#	18670
#	36978
#	52675
#	67758
#	88387
#	105783
#	121176
#	138718
#	153019
#	171071
#	187321
#	201138
#	219315
#	235598
#	252157
#	267360
#	283966
#
# Disc length: 3998 seconds
#
# Revision: 3
# Processed by: cddbd v1.5.2PL0 Copyright (c) Steve Scherf et al.
# Submitted via: audiograbber 1.83.01
#
DISCID=fa0f9c12
DTITLE=Various Artist - MRH142
DYEAR=2016
DGENRE=Karaoke
TTITLE0=Clean Bandit Ft Louisa Johnson - Tears
TTITLE1=Beyonce - Sorry
TTITLE2=Kungs Vs Cookin' On 3 Burners - This Girl
TTITLE3=Shawn Mendes - Treat You Better
TTITLE4=Drake Ft Rihanna - Too Good
TTITLE5=Lukas Graham - Mama Said
TTITLE6=Rihanna - Needed Me
TTITLE7=Reggie 'N' Bollie - New Girl
TTITLE8=OneRepublic - Wherever I Go
TTITLE9=Gnash Ft Oliver O' Brien - I Hate U, I Love U
TTITLE10=Sigma Ft Take That - Cry
TTITLE11=Mike Will Made-It Ft Rihanna - Nothing Is Promised
TTITLE12=Cheat Codes X Kris Kross Amsterdam - Sex
TTITLE13=David Guetta Ft Zara Larsson - This One's For You
TTITLE14=The Stone Roses - All For One
TTITLE15=DJ Khaled Ft Drake - For Free
TTITLE16=Twenty One Pilots - Ride
TTITLE17=Craig David - One More Time
EXTD=
EXTT0=
EXTT1=
EXTT2=
EXTT3=
EXTT4=
EXTT5=
EXTT6=
EXTT7=
EXTT8=
EXTT9=
EXTT10=
EXTT11=
EXTT12=
EXTT13=
EXTT14=
EXTT15=
EXTT16=
EXTT17=
PLAYORDER=
